Coordinates
version=1
nRows=16
nColumns=36
inDegrees=yes

Units are S.I. units (second, meters, Newtons, ...)
If the header above contains a line with 'inDegrees', this indicates whether rotational values are in degrees (yes) or radians (no).

endheader
time	pelvis_tilt	pelvis_list	pelvis_rotation	pelvis_tx	pelvis_ty	pelvis_tz	hip_flexion_r	hip_adduction_r	hip_rotation_r	knee_angle_r	knee_angle_r_beta	ankle_angle_r	subtalar_angle_r	mtp_angle_r	hip_flexion_l	hip_adduction_l	hip_rotation_l	knee_angle_l	knee_angle_l_beta	ankle_angle_l	subtalar_angle_l	mtp_angle_l	lumbar_extension	lumbar_bending	lumbar_rotation	arm_flex_r	arm_add_r	arm_rot_r	elbow_flex_r	pro_sup_r	arm_flex_l	arm_add_l	arm_rot_l	elbow_flex_l	pro_sup_l
      0.42000000	     -6.16990510	     -0.29326197	      4.83165762	      0.24681778	      0.94800997	     -0.19355035	     11.58773808	      2.40536823	     -2.15307393	     13.29322192	      0.23201049	      9.93269203	     -5.95977648	     -6.23170085	     28.61580854	      3.18494776	      4.22386083	     46.02610497	      0.80330707	     -1.29794247	    -20.79863937	     -6.23170085	    -10.88929848	     11.03674566	     -2.17935976	      7.28685986	    -14.07428591	     12.76768169	     38.40706292	    103.02789264	     -2.46907283	     -6.01538530	      4.92785740	     38.02298077	     96.73183854
      0.43000000	     -5.91835178	     -0.30176557	      4.86816134	      0.25529260	      0.94835588	     -0.19318552	     10.41033916	      2.54779899	     -2.07418021	     12.67555865	      0.22123023	     10.19823194	     -5.95688507	     -6.25656158	     28.79500729	      3.25220754	      4.09894761	     43.87961834	      0.76584381	     -1.27955896	    -20.14626233	     -6.25656158	    -11.16547308	     10.79947465	     -2.16035332	      7.32311080	    -14.07467269	     12.88261047	     38.67728467	    103.05336365	     -2.54498616	     -5.93314155	      4.63845203	     37.48046846	     96.66704610
      0.44000000	     -5.95000848	     -0.41745766	      4.98186775	      0.26371614	      0.94807200	     -0.19286112	      9.59924407	      2.76746744	     -2.06733927	     12.16692337	      0.21235287	     10.51089652	     -5.90059097	     -6.26830032	     29.31972336	      3.27383802	      4.11118560	     41.78460496	      0.72927893	     -1.33085693	    -19.50318767	     -6.26830032	    -11.04305928	     10.64838927	     -2.21352116	      7.28183924	    -14.06309555	     12.95438112	     38.86824659	    103.07177230	     -2.75644852	     -5.90757166	      4.48497200	     37.12582338	     96.62730176
      0.45000000	     -5.78042991	     -0.49956971	      5.08314353	      0.27233038	      0.94799016	     -0.19256003	      8.55351497	      2.95432165	     -2.18303794	     11.66497461	      0.20359221	     10.88405197	     -5.70900779	     -6.28468361	     29.54072241	      3.25835802	      3.94661065	     39.54901197	      0.69026047	     -1.35066587	    -18.54813813	     -6.28468361	    -11.15372158	     10.45660823	     -2.22139521	      7.24341151	    -14.06020577	     13.05593496	     39.01416587	    103.08854348	     -2.89204307	     -5.83309057	      4.26556432	     36.63947469	     96.57297495
      0.46000000	     -5.73076487	     -0.65823025	      5.19715645	      0.28092271	      0.94760951	     -0.19224552	      7.66891672	      3.21691025	     -2.27149256	     11.20809461	      0.19561815	     11.24811997	     -5.48102264	     -6.29584070	     29.88557801	      3.18547804	      3.85423412	     37.32092076	      0.65137295	     -1.42921754	    -17.57984032	     -6.29584070	    -11.10428834	     10.32972188	     -2.20830770	      7.16988080	    -14.06362420	     13.14491867	     39.12296841	    103.10206235	     -3.08121858	     -5.78650101	      4.10367226	     36.27501017	     96.53401945
      0.47000000	     -5.49699589	     -0.74645364	      5.30115562	      0.28970964	      0.94739918	     -0.19192646	      6.55578891	      3.40526572	     -2.49916614	     10.74566179	      0.18754718	     11.69962039	     -5.06409347	     -6.31131271	     29.97491679	      3.09630507	      3.52215093	     35.03095518	      0.61140551	     -1.45759385	    -16.23560988	     -6.31131271	    -11.25861024	     10.11707553	     -2.16733307	      7.09543168	    -14.07005232	     13.26310409	     39.18426715	    103.11225137	     -3.20374592	     -5.73675923	      3.88978925	     35.82625121	     96.48901560
      0.48000000	     -5.40835625	     -0.94309299	      5.36447898	      0.29852226	      0.94687488	     -0.19152544	      5.64388486	      3.71457997	     -2.65553636	     10.33112934	      0.18031222	     12.09894318	     -4.66873990	     -6.32224916	     30.21585809	      2.90492780	      3.28039140	     32.76938978	      0.57193375	     -1.57584030	    -14.99508328	     -6.32224916	    -11.20595756	     10.00024553	     -2.08528643	      6.98025082	    -14.07785576	     13.36215907	     39.22990317	    103.12008604	     -3.44577815	     -5.68370530	      3.74547877	     35.51692558	     96.46129748
      0.49000000	     -5.23061980	     -1.07270716	      5.41472791	      0.30746472	      0.94642214	     -0.19109202	      4.61088744	      3.95526112	     -2.85181505	      9.89633169	      0.17272357	     12.52785917	     -4.16029925	     -6.33395374	     30.30836343	      2.72818176	      2.90231562	     30.46664307	      0.53174323	     -1.75703971	    -13.50465699	     -6.33395374	    -11.26553572	      9.79436554	     -1.96433217	      6.84306803	    -14.06856649	     13.48096765	     39.24796474	    103.12530338	     -3.64454947	     -5.66070159	      3.57219904	     35.18782229	     96.43110085
      0.50000000	     -5.04926464	     -1.21554588	      5.42361079	      0.31653851	      0.94587752	     -0.19060268	      3.57788761	      4.21530888	     -3.06853129	      9.46926793	      0.16526990	     12.96152453	     -3.58592267	     -6.34579645	     30.38047414	      2.49750507	      2.45505285	     28.20619981	      0.49229106	     -1.93930017	    -11.96616710	     -6.34579645	    -11.34230533	      9.57299985	     -1.81251560	      6.67182643	    -14.05835006	     13.59649100	     39.23775498	    103.12434089	     -3.87796229	     -5.63870528	      3.40950498	     34.90637394	     96.40807758
      0.51000000	     -4.66226508	     -1.29127571	      5.42067623	      0.32583550	      0.94552630	     -0.19014896	      2.33275573	      4.37749860	     -3.62787393	      9.11741784	      0.15912896	     13.89537689	     -2.04973304	     -6.39648949	     30.24287135	      2.20531354	      1.61073036	     26.11294847	      0.45575693	     -1.31296607	     -9.33252813	     -6.39648949	    -11.64187216	      9.28452825	     -1.66356333	      6.56600143	    -14.03452957	     13.76264387	     39.17695970	    103.05961203	     -4.11697107	     -5.63139815	      3.11377572	     34.71400794	     96.45692350
      0.52000000	     -4.64309668	     -1.47901258	      5.39634090	      0.33504588	      0.94461186	     -0.18965589	      1.48427357	      4.68464245	     -3.69718317	      8.69995496	      0.15184286	     14.11920043	     -1.77458937	     -6.40822951	     30.46953751	      1.93870003	      1.24115294	     23.96190838	      0.41821420	     -1.85563748	     -8.25203563	     -6.40822951	    -11.48472329	      9.07008875	     -1.42492927	      6.31395658	    -14.04947962	     13.84930438	     39.15945808	    103.04759865	     -4.40425323	     -5.65175394	      2.96862409	     34.51926466	     96.44360065
      0.53000000	     -4.34077244	     -1.54101186	      5.33195674	      0.34448245	      0.94410134	     -0.18911734	      0.27514170	      4.87041501	     -3.84754437	      8.22976620	      0.14363652	     14.46421229	     -1.13176130	     -6.43339391	     30.31854030	      1.69019095	      0.59637073	     21.80845500	      0.38062934	     -2.15343169	     -6.77504436	     -6.43339391	    -11.72015500	      8.70703006	     -1.15966998	      6.09913521	    -13.97379225	     13.91835872	     39.12350024	    102.99628092	     -4.58932238	     -5.64798050	      2.73567355	     34.29941550	     96.43481002
      0.54000000	     -4.39241612	     -1.74694900	      5.24224783	      0.35394820	      0.94298700	     -0.18858504	     -0.52133587	      5.18769842	     -3.83083938	      7.77499015	      0.13569918	     14.66209248	     -0.73754533	     -6.44344933	     30.58845977	      1.36777682	      0.28717602	     19.81651462	      0.34586343	     -2.47390920	     -5.80154203	     -6.44344933	    -11.48707318	      8.46317160	     -0.83260341	      5.76858383	    -13.92249609	     14.00290277	     39.06636925	    102.97806769	     -4.90043318	     -5.64044637	      2.58193387	     34.19041963	     96.41573065
      0.55000000	     -4.28375012	     -1.86250271	      5.14365093	      0.36358132	      0.94208127	     -0.18811912	     -1.52626400	      5.40646747	     -3.84464308	      7.29981607	      0.12740583	     14.87809251	     -0.26694929	     -6.45460981	     30.63211378	      1.08481894	     -0.19954947	     17.86331739	      0.31177370	     -2.72929140	     -4.73688689	     -6.45460981	    -11.46753176	      8.10998348	     -0.49323668	      5.46862214	    -13.89908928	     14.06704567	     38.98189559	    102.95043915	     -5.14764052	     -5.65294786	      2.34809078	     34.03010610	     96.36969485
      0.56000000	     -3.96007163	     -1.91027908	      5.01671637	      0.37343623	      0.94144680	     -0.18765116	     -2.77871536	      5.55229255	     -4.06493851	      6.83702293	      0.11932856	     15.24482221	      0.47230499	     -6.48054046	     30.46906436	      0.78432034	     -1.00164773	     16.13301286	      0.28157419	     -2.62884095	     -3.33191260	     -6.48054046	    -11.70152878	      7.68497762	     -0.19074235	      5.23066190	    -13.79998855	     14.11646594	     38.89411971	    102.87858340	     -5.39320424	     -5.65580994	      1.90439689	     33.90122815	     96.25918099
      0.57000000	     -3.90960064	     -2.03741625	      4.85714013	      0.38334004	      0.94039310	     -0.18722715	     -3.71484483	      5.75046431	     -4.04198073	      6.40143582	      0.11172613	     15.46642721	      1.01297355	     -6.49911132	     30.59102080	      0.45731010	     -1.46898479	     14.50504188	      0.25316074	     -2.59479989	     -2.29458887	     -6.49911132	    -11.59632593	      7.30222904	      0.17552950	      4.89847419	    -13.75231484	     14.24172143	     38.74870467	    102.83655751	     -5.69279807	     -5.66679032	      1.53925699	     33.82555744	     96.14158981
